# xmcd
#
# Track frame offsets:
#	150
#	10519
#	22236
#	35465
#	47145
#	59956
#	73881
#	84894
#	95196
#	123882
#	137578
#	148102
#	159940
#	172861
#	187021
#	198855
#	211215
#	222679
#	234989
#	247964
#
# Disc length: 3496 seconds
#
# Revision: 0
# Processed by: cddbd v1.5.1PL2 Copyright (c) Steve Scherf et al.
# Submitted via: dBpowerAMP V4.0
#
DISCID=210da614
DTITLE=Various Artist - Rhythm and Blues
DYEAR=1900
DGENRE=Blues
TTITLE0=Louis Prima and His Orchestra - Bourbon Street Blues
TTITLE1=Louis Prima and his Orchestra - Your Gotta See Baby Toninght
TTITLE2=Ray Charles - Alone In this City 
TTITLE3=Ray Charles - How Long Blues
TTITLE4=Louis Jordan and His tympany 5 - Choo Choo Ch'Boogie
TTITLE5=Louis Jourdan and His tympany 5 - Five Guys Named Moe
TTITLE6=Ella Mae Morse - Rock Me All Ninght Long
TTITLE7=Ella Mae Morse - Have Mercy Baby
TTITLE8=Louis Prima and His Orchestra - Fee Fie Foo
TTITLE9=Louis Prima and His Orchestra - Buona Sera
TTITLE10=Ray Charles Trio - I Wonder Who's Kissing her Now
TTITLE11=Ray Charles Tiro - The Sun's gonna Shine Again
TTITLE12=Louis Jordan and His tympany 5 - Let The Good Times Roll
TTITLE13=Louis Jordan and His tymapny 5 - There Ain't Nobody Here But Us Chickens 
TTITLE14=Ella mae Morse - Money Honey
TTITLE15=Ella Mae Morse - Daddy Daddy
TTITLE16=Ray Charles - Here Am I, Let's Have A Ball 
TTITLE17=Louis Jordan and His Tympany 5 - Caldonia
TTITLE18=Ella Mae Morse - Forty Cups Of Coffee
TTITLE19=Puis Prima and His Orchestra - If You Were The Only Girl In The World
EXTD=
EXTT0=
EXTT1=
EXTT2=
EXTT3=
EXTT4=
EXTT5=
EXTT6=
EXTT7=
EXTT8=
EXTT9=
EXTT10=
EXTT11=
EXTT12=
EXTT13=
EXTT14=
EXTT15=
EXTT16=
EXTT17=
EXTT18=
EXTT19=
PLAYORDER=
